<svg width="100" height="100" viewBox="0 0 100 100" fill="none" xmlns="http://www.w3.org/2000/svg">
<g clip-path="url(#clip0_12_133)">
<rect width="100" height="100" fill="white"/>
<path d="M36.695 40.2508C30.8782 42.9355 22.4662 49.5129 35.3526 54.3453H85.6903C88.5987 56.1351 93.4759 57.567 89.7173 48.976C85.9588 40.385 77.86 40.922 74.2804 42.2643C73.833 46.2913 70.5219 52.7345 60.857 46.2913C51.1922 39.8481 40.722 39.5796 36.695 40.2508Z" fill="url(#paint0_radial_12_133)"/>
<path d="M-4.98235 88.9006H-107V74.1349H-48.6083C-29.2787 74.1349 -11.4703 72.3451 -4.98235 71.4503H3.74285H31.9319H82.2696C84.9543 68.9893 91.666 65.544 97.0353 71.4503C102.405 77.3565 99.2726 82.8601 97.0353 84.8736C77.7952 85.0974 36.0932 85.4106 23.2067 84.8736C10.3203 84.3367 -0.95533 87.3346 -4.98235 88.9006Z" fill="url(#paint1_linear_12_133)"/>
<rect x="47.3688" y="54.7657" width="6.71169" height="17.4504" fill="#FFBFA3"/>
<rect x="47.3688" y="53.4234" width="6.71169" height="8.05403" rx="1" fill="#FFBFA3"/>
<rect x="58.1075" y="54.7657" width="6.71169" height="17.4504" fill="#FFBFA3"/>
<rect x="58.1075" y="53.4234" width="6.71169" height="8.05403" rx="1" fill="#FFBFA3"/>
<rect x="68.8462" y="54.7657" width="6.71169" height="17.4504" fill="#FFBFA3"/>
<rect x="68.8462" y="53.4234" width="6.71169" height="8.05403" rx="1" fill="#FFBFA3"/>
<rect x="79.5849" y="54.7657" width="6.71169" height="17.4504" fill="#FFBFA3"/>
<rect x="79.5849" y="53.4234" width="6.71169" height="8.05403" rx="1" fill="#FFBFA3"/>
<rect x="36.6301" y="54.7657" width="6.71169" height="17.4504" fill="#FFBFA3"/>
<rect x="36.6301" y="53.4234" width="6.71169" height="8.05403" rx="1" fill="#FFBFA3"/>
<rect x="43.3418" y="54.7657" width="6.71169" height="17.4504" fill="#FFDCA3"/>
<rect x="43.3418" y="53.4234" width="6.71169" height="8.05403" rx="1" fill="#FFDCA3"/>
<rect x="54.0805" y="54.7657" width="6.71169" height="17.4504" fill="#FFDCA3"/>
<rect x="54.0805" y="53.4234" width="6.71169" height="8.05403" rx="1" fill="#FFDCA3"/>
<rect x="64.8192" y="54.7657" width="6.71169" height="17.4504" fill="#FFDCA3"/>
<rect x="64.8192" y="53.4234" width="6.71169" height="8.05403" rx="1" fill="#FFDCA3"/>
<rect x="75.5579" y="54.7657" width="6.71169" height="17.4504" fill="#FFDCA3"/>
<rect x="75.5579" y="53.4234" width="6.71169" height="8.05403" rx="1" fill="#FFDCA3"/>
<rect x="32.6031" y="54.7657" width="6.71169" height="17.4504" fill="#FFDCA3"/>
<rect x="32.6031" y="53.4234" width="6.71169" height="8.05403" rx="1" fill="#FFDCA3"/>
<path d="M40.705 24.68L42.49 29.545C41.44 30.0583 40.32 30.315 39.13 30.315C37.7067 30.315 36.4583 30.0467 35.385 29.51C34.3117 28.9733 33.3783 27.9467 32.585 26.43L29.89 20.515H28.455V29.685L28.77 30H22.47L22.82 29.685V4.485L22.47 4.17H28.77L28.455 4.485V14.425H29.61L33.95 4.485H33.915L33.6 4.17H40.355L40.04 4.485L33.985 17.05L37.45 23.875C37.8 24.575 38.2783 24.995 38.885 25.135C39.515 25.2517 40.1217 25.1 40.705 24.68ZM58.9296 4.485V29.685L59.2446 30H52.9796L53.2946 29.685V9.665H49.2696V29.685L49.5846 30H43.3196L43.6346 29.685V4.485L43.3196 4.17H59.2446L58.9296 4.485ZM73.2126 4.485L72.8976 4.17H79.0926L78.7776 4.485V29.685L79.1276 30H72.8276L73.1776 29.685V17.47L63.9376 30H62.4676V4.485L62.1526 4.17H68.4176L68.1026 4.485V16.455L73.2126 9.35V4.485ZM21.63 42.17H37.1V47.595H32.235V67.685L32.55 68H26.285L26.6 67.685V47.595H21.63V42.17ZM39.4647 48.12L39.1497 47.84H44.7147L44.4347 48.12V56.87L48.5647 52.6V47.84H53.5347V67.72L53.8147 68H48.2847L48.5647 67.72V59.53L40.6547 68H39.4647V48.12ZM72.328 42.485V67.685L72.643 68H66.378L66.693 67.685V47.665H62.668V67.685L62.983 68H56.718L57.033 67.685V42.485L56.718 42.17H72.643L72.328 42.485Z" fill="#76BDFF"/>
</g>
<defs>
<radialGradient id="paint0_radial_12_133" cx="0" cy="0" r="1" gradientUnits="userSpaceOnUse" gradientTransform="translate(51.3958 42.0135) rotate(8.36803) scale(40.1153 10.0776)">
<stop offset="0.495192" stop-color="#BFFFE6"/>
<stop offset="0.975962" stop-color="#5DFFBE"/>
</radialGradient>
<linearGradient id="paint1_linear_12_133" x1="-3.5" y1="68.1891" x2="-3.5" y2="88.9006" gradientUnits="userSpaceOnUse">
<stop offset="0.418269" stop-color="#A1D1FF"/>
<stop offset="0.769231" stop-color="#76BDFF"/>
</linearGradient>
<clipPath id="clip0_12_133">
<rect width="100" height="100" fill="white"/>
</clipPath>
</defs>
</svg>
