<svg width="100" height="100" viewBox="0 0 100 100" fill="none" xmlns="http://www.w3.org/2000/svg">
<g clip-path="url(#clip0_11_41)">
<rect width="100" height="100" rx="50" fill="white"/>
<circle cx="50" cy="50" r="50" fill="white"/>
<path d="M44.0187 92.0858L-4.76595 133.017L-10.6902 125.956L17.2326 102.528C26.476 94.7729 34.2739 86.772 37.0173 83.741L41.1897 80.2403L54.6697 68.9304L78.7411 48.7341C79.0375 46.4802 80.8647 42.1398 85.802 42.8099C90.7393 43.48 91.4497 47.3685 91.1877 49.2289C82.0768 57.0554 62.2607 73.9367 55.883 78.8501C49.5053 83.7636 45.3161 89.7212 44.0187 92.0858Z" fill="url(#paint0_linear_11_41)"/>
<rect x="55.3575" y="54.7584" width="4.18956" height="10.8928" transform="rotate(-39.9972 55.3575 54.7584)" fill="#FFBFA3"/>
<rect x="54.8189" y="54.1165" width="4.18956" height="5.02747" rx="1" transform="rotate(-39.9972 54.8189 54.1165)" fill="#FFBFA3"/>
<rect x="60.4927" y="50.4498" width="4.18956" height="10.8928" transform="rotate(-39.9972 60.4927 50.4498)" fill="#FFBFA3"/>
<rect x="59.9541" y="49.8079" width="4.18956" height="5.02747" rx="1" transform="rotate(-39.9972 59.9541 49.8079)" fill="#FFBFA3"/>
<rect x="65.6279" y="46.1413" width="4.18956" height="10.8928" transform="rotate(-39.9972 65.6279 46.1413)" fill="#FFBFA3"/>
<rect x="65.0894" y="45.4994" width="4.18956" height="5.02747" rx="1" transform="rotate(-39.9972 65.0894 45.4994)" fill="#FFBFA3"/>
<rect x="70.7632" y="41.8328" width="4.18956" height="10.8928" transform="rotate(-39.9972 70.7632 41.8328)" fill="#FFBFA3"/>
<rect x="70.2246" y="41.1909" width="4.18956" height="5.02747" rx="1" transform="rotate(-39.9972 70.2246 41.1909)" fill="#FFBFA3"/>
<rect x="50.2223" y="59.0669" width="4.18956" height="10.8928" transform="rotate(-39.9972 50.2223 59.0669)" fill="#FFBFA3"/>
<rect x="49.6837" y="58.425" width="4.18956" height="5.02747" rx="1" transform="rotate(-39.9972 49.6837 58.425)" fill="#FFBFA3"/>
<rect x="53.4318" y="56.3741" width="4.18956" height="10.8928" transform="rotate(-39.9972 53.4318 56.3741)" fill="#FFDCA3"/>
<rect x="52.8932" y="55.7321" width="4.18956" height="5.02747" rx="1" transform="rotate(-39.9972 52.8932 55.7321)" fill="#FFDCA3"/>
<rect x="58.567" y="52.0655" width="4.18956" height="10.8928" transform="rotate(-39.9972 58.567 52.0655)" fill="#FFDCA3"/>
<rect x="58.0284" y="51.4236" width="4.18956" height="5.02747" rx="1" transform="rotate(-39.9972 58.0284 51.4236)" fill="#FFDCA3"/>
<rect x="63.7022" y="47.757" width="4.18956" height="10.8928" transform="rotate(-39.9972 63.7022 47.757)" fill="#FFDCA3"/>
<rect x="63.1637" y="47.1151" width="4.18956" height="5.02747" rx="1" transform="rotate(-39.9972 63.1637 47.1151)" fill="#FFDCA3"/>
<rect x="68.8375" y="43.4485" width="4.18956" height="10.8928" transform="rotate(-39.9972 68.8375 43.4485)" fill="#FFDCA3"/>
<rect x="68.2989" y="42.8065" width="4.18956" height="5.02747" rx="1" transform="rotate(-39.9972 68.2989 42.8065)" fill="#FFDCA3"/>
<rect x="48.2965" y="60.6826" width="4.18956" height="10.8928" transform="rotate(-39.9972 48.2965 60.6826)" fill="#FFDCA3"/>
<rect x="47.758" y="60.0407" width="4.18956" height="5.02747" rx="1" transform="rotate(-39.9972 47.758 60.0407)" fill="#FFDCA3"/>
<path d="M100 100H50C77.6142 100 100 77.6142 100 50C100 22.3858 77.6142 0 50 0C22.3858 0 0 22.3858 0 50C0 77.6142 22.3858 100 50 100H0V0H100V100Z" fill="#D9D9D9"/>
<path d="M18.7665 42.8234L21.2427 44.4473C20.9358 45.0405 20.5094 45.5398 19.9635 45.9452C19.3105 46.43 18.6464 46.7322 17.9711 46.8516C17.2959 46.971 16.5179 46.818 15.6373 46.3924L12.3859 44.5968L11.7275 45.0856L14.8514 49.2927L15.1032 49.3299L12.2129 51.476L12.2661 51.2123L3.68152 39.6509L3.41364 39.6257L6.30398 37.4795L6.26677 37.7313L9.65291 42.2916L10.1828 41.8982L8.78778 35.8594L8.77173 35.8713L8.5199 35.8341L11.619 33.533L11.5818 33.7848L13.0842 41.6121L16.9989 43.5629C17.3979 43.7648 17.7605 43.7946 18.0865 43.6521C18.4153 43.491 18.6419 43.2148 18.7665 42.8234ZM20.248 27.3499L28.8326 38.9112L29.0844 38.9484L26.2102 41.0827L26.2474 40.8308L19.4274 31.646L17.5808 33.0171L24.4008 42.202L24.6526 42.2392L21.7783 44.3734L21.8155 44.1216L13.2309 32.5603L12.9791 32.5231L20.2852 27.0981L20.248 27.3499ZM26.8008 22.4843L26.549 22.447L29.3912 20.3367L29.354 20.5885L37.9386 32.1498L38.2064 32.1751L35.3161 34.3213L35.3694 34.0575L31.2082 28.4535L31.2375 37.3497L30.5631 37.8505L21.8712 26.1446L21.6194 26.1074L24.4937 23.9732L24.4564 24.225L28.5341 29.7167L28.4581 24.7162L26.8008 22.4843ZM16.1436 57.575L23.241 52.305L25.0891 54.7939L22.8571 56.4512L29.7009 65.6681L29.9527 65.7054L27.0785 67.8396L27.1157 67.5878L20.2718 58.3708L17.9917 60.0639L16.1436 57.575ZM26.3528 54.2292L26.1129 54.208L28.666 52.3123L28.633 52.5361L31.6137 56.5505L32.0539 53.1845L30.4323 51.0007L32.7125 49.3077L39.4848 58.4283L39.7086 58.4614L37.1716 60.3452L37.2046 60.1214L34.4146 56.3639L33.671 62.9444L33.1251 63.3498L26.3528 54.2292ZM39.5104 40.4488L48.095 52.0101L48.3468 52.0473L45.4725 54.1815L45.5097 53.9297L38.6897 44.7449L36.8431 46.116L43.6631 55.3009L43.9149 55.3381L41.0407 57.4723L41.0779 57.2205L32.4933 45.6591L32.2414 45.6219L39.5476 40.1969L39.5104 40.4488Z" fill="#76BDFF"/>
<mask id="mask0_11_41" style="mask-type:alpha" maskUnits="userSpaceOnUse" x="0" y="0" width="100" height="100">
<circle cx="50" cy="50" r="50" fill="white"/>
</mask>
<g mask="url(#mask0_11_41)">
</g>
</g>
<defs>
<linearGradient id="paint0_linear_11_41" x1="36.4178" y1="81.5868" x2="44.7276" y2="91.491" gradientUnits="userSpaceOnUse">
<stop offset="0.418269" stop-color="#A1D1FF"/>
<stop offset="0.769231" stop-color="#76BDFF"/>
</linearGradient>
<clipPath id="clip0_11_41">
<rect width="100" height="100" rx="50" fill="white"/>
</clipPath>
</defs>
</svg>
